<svg width="65" height="32" viewBox="0 0 65 32" fill="none" xmlns="http://www.w3.org/2000/svg">
<path fill-rule="evenodd" clip-rule="evenodd" d="M25.1667 26C23.5098 26 22.1667 24.6568 22.1667 23V15.3361C22.1667 14.4856 22.5277 13.6751 23.1598 13.1062L30.1598 6.80619C31.3007 5.77937 33.0327 5.77937 34.1736 6.80619L41.1736 13.1062C41.8057 13.6751 42.1667 14.4856 42.1667 15.3361V23C42.1667 24.6568 40.8235 26 39.1667 26H25.1667ZM40.1667 15.3361V23C40.1667 23.5523 39.719 24 39.1667 24H36.1667V19C36.1667 17.3431 34.8235 16 33.1667 16H31.1667C29.5098 16 28.1667 17.3431 28.1667 19V24H25.1667C24.6144 24 24.1667 23.5523 24.1667 23V15.3361C24.1667 15.0526 24.287 14.7824 24.4977 14.5928L31.4977 8.29278C31.878 7.9505 32.4553 7.9505 32.8357 8.29278L39.8357 14.5928C40.0464 14.7824 40.1667 15.0526 40.1667 15.3361ZM30.1667 24V19C30.1667 18.4477 30.6144 18 31.1667 18H33.1667C33.719 18 34.1667 18.4477 34.1667 19V24H30.1667Z" fill="black"/>
</svg>
