<svg width="65" height="32" viewBox="0 0 65 32" fill="none" xmlns="http://www.w3.org/2000/svg">
<path fill-rule="evenodd" clip-rule="evenodd" d="M32.8334 16C33.9379 16 34.8334 15.1046 34.8334 14C34.8334 12.8954 33.9379 12 32.8334 12C31.7288 12 30.8334 12.8954 30.8334 14C30.8334 15.1046 31.7288 16 32.8334 16ZM32.8334 18C35.0425 18 36.8334 16.2091 36.8334 14C36.8334 11.7909 35.0425 10 32.8334 10C30.6242 10 28.8334 11.7909 28.8334 14C28.8334 16.2091 30.6242 18 32.8334 18Z" fill="black"/>
<path fill-rule="evenodd" clip-rule="evenodd" d="M39.3922 23.5488C41.5005 21.7154 42.8334 19.0134 42.8334 16C42.8334 10.4772 38.3562 6 32.8334 6C27.3105 6 22.8334 10.4772 22.8334 16C22.8334 19.0134 24.1662 21.7154 26.2745 23.5488C28.0303 25.0756 30.3239 26 32.8334 26C35.2496 26 37.4657 25.143 39.1943 23.7165C39.261 23.6614 39.327 23.6055 39.3922 23.5488ZM33.0913 23.9959C33.0056 23.9986 32.9197 24 32.8334 24C32.8247 24 32.8161 24 32.8075 24C32.7271 23.9997 32.6469 23.9983 32.567 23.9956C31.2248 23.9517 29.9661 23.5772 28.8699 22.9508C29.7852 21.7632 31.2216 21 32.8334 21C34.4452 21 35.8816 21.7632 36.7968 22.9508C35.6983 23.5785 34.4367 23.9533 33.0913 23.9959ZM38.3958 21.7498C37.1166 20.0781 35.1009 19 32.8334 19C30.5659 19 28.5502 20.0781 27.271 21.7498C25.7678 20.2953 24.8334 18.2568 24.8334 16C24.8334 11.5817 28.4151 8 32.8334 8C37.2517 8 40.8334 11.5817 40.8334 16C40.8334 18.2568 39.8989 20.2953 38.3958 21.7498Z" fill="black"/>
</svg>
